<?xml version="1.0" standalone="no"?>
<!DOCTYPE svg PUBLIC "-//W3C//DTD SVG 20010904//EN"
 "http://www.w3.org/TR/2001/REC-SVG-20010904/DTD/svg10.dtd">
<svg version="1.0" xmlns="http://www.w3.org/2000/svg"
 width="560.000000pt" height="560.000000pt" viewBox="0 0 560.000000 560.000000"
 preserveAspectRatio="xMidYMid meet">
<metadata>
Created by potrace 1.11, written by Peter Selinger 2001-2013
</metadata>
<g transform="translate(0.000000,560.000000) scale(0.100000,-0.100000)"
fill="#000000" stroke="none">
<path d="M3080 5228 c-74 -30 -208 -63 -305 -73 -336 -38 -375 -44 -466 -70
-59 -17 -153 -57 -157 -67 -2 -4 -10 -8 -17 -8 -19 0 -141 -85 -210 -145 -123
-108 -232 -302 -259 -458 -3 -15 -7 -35 -10 -45 -39 -136 -47 -625 -12 -713 5
-12 -2 -20 -24 -29 -37 -15 -94 -71 -118 -114 -25 -46 -25 -446 -1 -491 27
-48 75 -93 124 -115 41 -19 45 -24 46 -58 1 -75 36 -213 83 -327 92 -228 295
-441 503 -532 35 -15 63 -31 63 -35 0 -4 -17 -10 -37 -13 -384 -56 -570 -173
-599 -377 -6 -48 -6 -48 -80 -83 -177 -85 -388 -260 -514 -425 -196 -259 -290
-548 -290 -897 l0 -153 2000 0 2001 0 -2 157 c-2 293 -61 522 -190 746 -134
230 -378 458 -611 570 -75 36 -76 37 -83 83 -16 107 -78 194 -185 258 -92 56
-199 87 -415 122 l-40 6 77 38 c108 54 183 107 260 186 94 96 109 115 164 207
81 137 137 302 151 445 l6 62 50 26 c53 26 86 58 115 109 15 26 17 62 17 245
0 186 -2 219 -18 247 -25 47 -84 100 -125 114 l-35 11 8 102 c14 161 13 462
-1 566 -18 139 -49 254 -95 348 -31 65 -57 100 -122 165 -45 45 -117 109 -160
141 -43 32 -81 65 -84 73 -3 7 3 37 14 66 35 95 17 105 -109 58 l-77 -29 12
32 c15 35 11 66 -7 66 -6 0 -44 -16 -85 -35 -40 -19 -74 -35 -76 -35 -2 0 6
17 18 38 21 39 19 73 -5 71 -7 0 -47 -14 -88 -31z"/>
</g>
</svg>
